<?xml version="1.0" encoding="UTF-8" standalone="no"?>
<!--part of the matt icon theme by sixsixfive released under CC0 (https://creativecommons.org/publicdomain/zero/1.0/) on openclipart-->
<svg xmlns="http://www.w3.org/2000/svg" xmlns:xlink="http://www.w3.org/1999/xlink" viewBox="0 0 128 128">
 <defs id="0">
  <linearGradient id="6">
   <stop id="H" stop-color="#eee"/>
   <stop offset="1" id="I" stop-color="#eee" stop-opacity="0"/>
  </linearGradient>
  <linearGradient id="7">
   <stop id="J"/>
   <stop offset="1" id="K" stop-opacity="0"/>
  </linearGradient>
  <linearGradient id="8">
   <stop id="L" stop-color="#f0ff80"/>
   <stop offset="1" id="M" stop-color="#8bb300"/>
  </linearGradient>
  <radialGradient xlink:href="#A" id="9" gradientUnits="userSpaceOnUse" gradientTransform="matrix(-1.404511,1.1888571,-0.99999995,-1.1813958,199.73811,11.750541)" cx="60.05" cy="51.39" r="15.03"/>
  <linearGradient id="A">
   <stop id="N" stop-color="#eee"/>
   <stop id="O" offset="1" stop-color="#dcdcdc"/>
  </linearGradient>
  <radialGradient xlink:href="#7" gradientUnits="userSpaceOnUse" gradientTransform="matrix(1,0,0,0.14583333,0,98.170209)" r="33.02" cy="114.93" cx="66.03" id="B"/>
  <filter id="C" x="-0.044" width="1.088" y="-0.301" height="1.602">
   <feGaussianBlur stdDeviation="1.20738" id="P"/>
  </filter>
  <radialGradient xlink:href="#A" id="D" gradientUnits="userSpaceOnUse" gradientTransform="matrix(0.5353487,-0.7140729,0.764706,0.9803922,-143.34963,-217.19576)" cx="-64" cy="148.57" r="38.946"/>
  <radialGradient xlink:href="#6" id="E" cx="64" cy="1.32" r="47.599" gradientTransform="matrix(1.5627464,0,0,1.0603606,-36.015772,-3.8734644)" gradientUnits="userSpaceOnUse"/>
  <linearGradient id="F">
   <stop id="Q" stop-color="#8bb300"/>
   <stop id="R" offset="1" stop-color="#9dca00"/>
  </linearGradient>
  <linearGradient xlink:href="#8" id="G" y1="13.313" x2="0" y2="114.73" gradientUnits="userSpaceOnUse"/>
 </defs>
 <path id="1" d="m 99.049438,114.93098 a 33.016479,4.8149033 0 1 1 -66.032959,0 33.016479,4.8149033 0 1 1 66.032959,0 z" transform="translate(-3.0598549,1.9471804)" opacity="0.702" fill="url(#B)" filter="url(#C)"/>
 <path d="M 64.003378,10.951675 C 63.220409,10.951675 62.698855,11.264805 61.187832,12.630175 C 60.749533,13.026225 60.265283,13.399335 59.739453,13.753685 C 59.607993,13.842285 59.469993,13.931755 59.333363,14.017645 C 55.917623,16.165025 50.908893,17.464515 45.235323,17.645375 C 45.008383,17.652375 44.780743,17.655375 44.551743,17.658875 C 44.322743,17.662875 44.092323,17.665875 43.861393,17.665875 C 38.368033,17.665875 34.010703,16.803695 30.142373,14.951845 C 27.913523,13.884855 26.669133,13.717975 25.844603,14.369785 C 24.822283,15.177955 20.804383,22.637195 18.954633,27.168345 C 13.971003,39.376255 12.735633,52.141985 15.299833,64.880425 C 17.572063,76.168435 22.219733,86.441535 28.842883,94.815935 C 31.099043,97.668633 35.869373,102.43804 38.717603,104.69064 C 39.094083,104.98834 39.473013,105.28174 39.854653,105.57054 C 39.939553,105.63454 40.026613,105.69634 40.111843,105.76004 C 40.417283,105.98884 40.723323,106.21354 41.032313,106.43684 C 41.426223,106.72144 41.823473,107.00034 42.223503,107.27604 C 44.568403,108.89234 47.020253,110.35934 49.621083,111.69564 C 49.693283,111.73264 49.765263,111.76664 49.837663,111.80394 C 50.212393,111.99484 50.586963,112.18674 50.967943,112.37244 C 51.233363,112.50244 51.505413,112.62434 51.773343,112.75154 C 52.025603,112.87064 52.276303,112.99324 52.531383,113.11014 C 52.540383,113.11014 52.549283,113.12014 52.558483,113.12414 C 52.924053,113.29164 53.290143,113.45504 53.661693,113.61814 C 54.124613,113.82224 54.592673,114.02444 55.062693,114.22054 C 55.536813,114.41834 56.016243,114.61294 56.497543,114.80264 C 56.983083,114.99394 57.466653,115.18134 57.959463,115.36434 C 58.360003,115.51314 58.765643,115.66104 59.170953,115.80424 C 59.266053,115.83824 59.359703,115.87224 59.455213,115.90584 C 59.507813,115.92484 59.545913,115.93484 59.597353,115.95284 C 59.640453,115.96784 59.682753,115.98584 59.725943,115.99984 C 59.778843,116.01784 59.816343,116.02984 59.868073,116.04684 C 61.566215,116.64144 62.652513,116.97554 63.644697,117.03494 C 63.763765,117.04494 63.885276,117.04894 64.003408,117.04894 C 64.121919,117.04894 64.242632,117.03894 64.36212,117.03494 C 65.356486,116.97394 66.452366,116.63804 68.159047,116.04004 C 68.241797,116.01104 68.310083,115.98904 68.395931,115.95904 C 68.56836,115.89904 68.738735,115.83714 68.91031,115.77634 C 69.289281,115.64194 69.665799,115.50264 70.04059,115.36344 C 71.020733,114.99944 71.986018,114.61654 72.937354,114.21964 C 73.408516,114.02304 73.87432,113.82184 74.338359,113.61724 C 74.764821,113.43004 75.185384,113.24174 75.604001,113.04874 C 75.749368,112.98174 75.892519,112.91384 76.037162,112.84574 C 76.37053,112.68864 76.702574,112.53324 77.032079,112.37194 C 77.411056,112.18634 77.78851,111.99464 78.162359,111.80344 C 78.609688,111.57554 79.050124,111.34864 79.488914,111.11304 C 80.806553,110.40574 82.08547,109.65994 83.333218,108.87954 C 84.161619,108.36144 84.981779,107.82794 85.783285,107.27554 C 86.184752,106.99884 86.579171,106.72194 86.974478,106.43624 C 86.981078,106.43624 86.988168,106.42624 86.994768,106.42224 C 87.38194,106.14224 87.770481,105.85824 88.15212,105.56944 C 88.533916,105.28114 88.914834,104.98564 89.289167,104.68964 C 92.137394,102.43704 96.907725,97.667533 99.163885,94.814835 C 105.78703,86.440534 110.42794,76.167334 112.70016,64.879384 C 115.26436,52.140954 114.029,39.375225 109.04537,27.167304 C 107.19562,22.636154 103.18448,15.176925 102.16217,14.368755 C 101.80143,14.083584 101.3571,13.954164 100.78823,13.989734 C 100.70693,13.994734 100.62443,14.005034 100.53781,14.016834 C 99.844905,14.111034 98.978825,14.417333 97.864405,14.950833 C 94.47961,16.571193 90.715586,17.433993 86.14875,17.624253 C 85.822547,17.637853 85.495212,17.651353 85.160601,17.658053 C 84.825991,17.665053 84.488714,17.665053 84.14538,17.665053 C 81.374209,17.665053 78.732659,17.402783 76.334946,16.907023 C 76.135137,16.865723 75.942554,16.822923 75.746118,16.778433 C 72.01382,15.932374 68.900868,14.510803 66.81894,12.629564 C 65.307916,11.264194 64.786362,10.951064 64.003393,10.951064 L 64.003378,10.951675 z" id="2" fill="#638000"/>
 <path id="3" d="M 64,13.3125 C 63.832497,13.421057 63.437427,13.722586 62.75,14.34375 C 62.234758,14.809326 61.682022,15.270012 61.0625,15.6875 C 61.022994,15.714126 60.867754,15.827752 60.59375,16 C 56.667577,18.468275 51.297022,19.809228 45.3125,20 C 44.964947,20.01072 44.727533,19.997955 44.59375,20 C 44.310667,20.004945 44.079018,20 43.875,20 C 38.136455,20 33.383827,19.055079 29.15625,17.03125 C 28.17739,16.562652 27.506396,16.384727 27.21875,16.34375 C 27.06014,16.561604 26.816745,16.903192 26.5625,17.3125 C 26.054011,18.131116 25.444535,19.235635 24.78125,20.46875 C 23.454679,22.93498 21.996282,25.896956 21.125,28.03125 C 16.305353,39.837468 15.117632,52.105384 17.59375,64.40625 C 19.798957,75.361304 24.280233,85.313078 30.65625,93.375 C 32.704914,95.96534 37.570377,100.82989 40.15625,102.875 C 40.529526,103.17017 40.890797,103.44693 41.25,103.71875 C 41.111587,103.61441 41.228202,103.64851 41.53125,103.875 C 41.880508,104.13662 42.162874,104.38662 42.40625,104.5625 C 42.798276,104.84574 43.157691,105.11754 43.53125,105.375 C 45.786524,106.92952 48.166306,108.32962 50.6875,109.625 C 50.952339,109.76072 51.022269,109.80977 50.90625,109.75 C 51.274443,109.93757 51.63649,110.10407 52,110.28125 C 52.185181,110.37195 52.450364,110.49916 52.78125,110.65625 C 53.144783,110.82789 53.372098,110.94138 53.5,111 C 53.510417,110.99993 53.520833,110.99993 53.53125,111 C 53.915968,111.17627 54.263451,111.35501 54.59375,111.5 C 55.017765,111.68695 55.488537,111.86215 55.96875,112.0625 C 56.456083,112.26581 56.904671,112.48319 57.34375,112.65625 C 57.816366,112.84246 58.304271,113.01038 58.78125,113.1875 C 59.193668,113.34071 59.566441,113.4939 59.9375,113.625 C 59.794878,113.57401 59.92603,113.60478 60.25,113.71875 C 60.304416,113.73342 60.320693,113.731 60.375,113.75 C 61.026291,113.97667 61.043128,113.97756 60.4375,113.78125 C 60.447917,113.78118 60.458333,113.78118 60.46875,113.78125 C 59.990504,113.61852 60.008595,113.6202 60.59375,113.8125 C 60.614738,113.8226 60.635574,113.83302 60.65625,113.84375 C 62.326712,114.42866 63.226251,114.68552 63.78125,114.71875 C 63.802082,114.71847 63.822918,114.71847 63.84375,114.71875 C 64.121651,114.74209 64.16135,114.71875 64,114.71875 C 63.761262,114.71875 63.898813,114.70135 64.3125,114.6875 C 64.880009,114.65269 65.697006,114.4317 67.375,113.84375 C 67.852708,113.67634 67.918975,113.67852 67.625,113.78125 C 67.703163,113.75405 67.866821,113.68524 68.125,113.59375 C 68.500565,113.46056 68.861821,113.32007 69.21875,113.1875 C 70.155348,112.83967 71.094456,112.45333 72.03125,112.0625 C 72.512787,111.86157 72.981047,111.68748 73.40625,111.5 C 73.81997,111.31839 74.218573,111.12488 74.625,110.9375 C 74.644902,110.92833 74.773571,110.87132 75.03125,110.75 C 75.394015,110.57905 75.720651,110.418 76,110.28125 C 76.368786,110.10064 76.73352,109.93423 77.09375,109.75 C 77.563557,109.51065 78.020046,109.26986 78.40625,109.0625 C 79.662526,108.38814 80.874268,107.66897 82.09375,106.90625 C 82.901389,106.40113 83.703327,105.90253 84.46875,105.375 C 84.844179,105.11625 85.200617,104.84663 85.59375,104.5625 C 85.604167,104.56243 85.614583,104.56243 85.625,104.5625 C 85.67527,104.51862 85.727401,104.47691 85.78125,104.4375 C 85.791949,104.42957 85.801719,104.41428 85.8125,104.40625 C 85.833176,104.39552 85.854012,104.3851 85.875,104.375 C 86.147689,104.1707 86.43228,103.95918 86.75,103.71875 C 86.74993,103.70833 86.74993,103.69792 86.75,103.6875 C 87.106647,103.41819 87.471382,103.16945 87.84375,102.875 C 90.429622,100.82989 95.295086,95.965339 97.34375,93.375 C 103.71974,85.313194 108.20105,75.361244 110.40625,64.40625 C 112.88237,52.105395 111.69465,39.83748 106.875,28.03125 C 106.00372,25.896957 104.54532,22.93498 103.21875,20.46875 C 102.55546,19.235635 101.94599,18.131117 101.4375,17.3125 C 101.18888,16.912242 100.93916,16.593137 100.78125,16.375 C 100.43568,16.428235 99.825932,16.576016 98.875,17.03125 C 95.178129,18.801006 91.06113,19.768312 86.25,19.96875 C 85.908637,19.982982 85.541408,19.992914 85.1875,20 C 84.789145,20.008334 84.467907,20 84.15625,20 C 81.242537,20 78.45063,19.720047 75.875,19.1875 C 75.686976,19.148636 75.486955,19.116167 75.25,19.0625 C 71.239315,18.153335 67.75662,16.608742 65.25,14.34375 C 64.562572,13.722586 64.167503,13.421057 64,13.3125 z M 52.53125,110.78125 C 52.190487,110.78125 52.198998,110.82557 52.34375,110.8125 C 52.36724,110.81038 52.495501,110.84748 52.53125,110.84375 L 52.53125,110.78125 z" fill="url(#G)"/>
 <path d="M 64,14.75 C 63.815388,14.900299 63.805701,14.911267 63.5,15.1875 C 62.961856,15.673771 62.367526,16.166739 61.6875,16.625 C 61.744777,16.586397 61.487969,16.748615 61.1875,16.9375 C 57.026926,19.553136 51.473703,20.929592 45.34375,21.125 C 44.953189,21.137047 44.6675,21.12435 44.625,21.125 C 44.318259,21.130358 44.060957,21.125 43.875,21.125 C 38.013754,21.125 33.087137,20.137448 28.6875,18.03125 C 28.11742,17.758342 27.939365,17.739042 27.65625,17.65625 C 27.596249,17.747317 27.562229,17.806068 27.5,17.90625 C 27.018061,18.682124 26.441124,19.773226 25.78125,21 C 24.469647,23.438403 22.999342,26.40351 22.15625,28.46875 C 17.41472,40.083612 16.253399,52.095368 18.6875,64.1875 C 20.86074,74.983747 25.274789,84.776746 31.53125,92.6875 C 33.468139,95.136511 38.39923,100.06668 40.84375,102 C 41.136496,102.23149 41.433258,102.43897 41.71875,102.65625 C 41.761589,102.67675 41.777607,102.69977 41.8125,102.71875 C 41.853272,102.7497 41.896715,102.78164 41.9375,102.8125 C 42.01462,102.86303 42.090706,102.89641 42.1875,102.96875 C 42.578857,103.26191 42.894022,103.5345 43.0625,103.65625 C 43.466797,103.94836 43.809514,104.22978 44.15625,104.46875 C 48.288838,107.40861 51.107561,108.85909 55.03125,110.46875 C 55.411691,110.63649 55.900164,110.82011 56.40625,111.03125 C 56.929924,111.24972 57.366367,111.47379 57.75,111.625 C 58.191742,111.79905 58.662208,111.94154 59.15625,112.125 C 59.52118,112.26057 59.833485,112.39211 60.125,112.5 C 60.186599,112.51264 60.192143,112.52378 60.21875,112.53125 C 60.243487,112.53819 60.286014,112.55444 60.3125,112.5625 C 60.328515,112.56737 60.357981,112.55711 60.375,112.5625 C 60.512383,112.59412 60.473046,112.58533 60.5,112.59375 C 60.510782,112.59712 60.518697,112.62101 60.53125,112.625 C 60.518448,112.62155 60.598947,112.65065 60.625,112.65625 C 60.658982,112.66356 60.666258,112.6582 60.75,112.6875 C 60.809564,112.70692 60.857854,112.72383 60.9375,112.75 C 60.967846,112.76051 61.005724,112.77243 61.03125,112.78125 C 61.048157,112.78717 61.045752,112.7754 61.0625,112.78125 C 61.079375,112.78708 61.110408,112.80746 61.125,112.8125 C 61.178886,112.83116 61.166573,112.82588 61.21875,112.84375 C 61.242282,112.8519 61.148856,112.80871 61.3125,112.875 C 62.627032,113.3199 63.510012,113.57145 63.78125,113.59375 C 63.787584,113.59427 63.837927,113.5934 63.84375,113.59375 C 63.870394,113.5913 63.91104,113.59557 63.9375,113.59375 C 64.03507,113.58704 64.13087,113.56753 64.28125,113.5625 C 64.625649,113.54138 65.346372,113.36066 67,112.78125 C 67.107233,112.74367 67.189654,112.74119 67.25,112.71875 C 67.249064,112.71908 67.280752,112.71899 67.28125,112.71875 C 67.289839,112.71461 67.48126,112.62648 67.75,112.53125 C 68.10501,112.40535 68.475964,112.2616 68.84375,112.125 C 69.755718,111.78632 70.660367,111.42066 71.59375,111.03125 C 72.101195,110.81951 72.587011,110.63707 72.96875,110.46875 C 73.356839,110.29839 73.736452,110.13104 74.15625,109.9375 C 74.239974,109.89892 74.312466,109.86772 74.5625,109.75 C 74.914431,109.58416 75.218425,109.41909 75.5,109.28125 C 75.886665,109.09188 76.262898,108.91921 76.59375,108.75 C 77.054328,108.51535 77.49448,108.26681 77.875,108.0625 C 79.103397,107.40311 80.294933,106.72245 81.5,105.96875 C 82.3093,105.46259 83.107726,104.97602 83.84375,104.46875 C 84.170243,104.24373 84.502135,103.98948 84.875,103.71875 C 84.89581,103.70059 84.916256,103.67391 84.9375,103.65625 C 84.99563,103.60837 85.058449,103.56649 85.125,103.53125 C 84.845029,103.73876 84.859781,103.72082 85.15625,103.5 C 85.176753,103.48893 85.197596,103.47851 85.21875,103.46875 C 85.247667,103.44709 85.283392,103.42803 85.3125,103.40625 C 85.343081,103.39038 85.343799,103.39001 85.375,103.375 C 85.571911,103.22776 85.752226,103.0695 85.96875,102.90625 C 85.998118,102.87317 86.029423,102.84187 86.0625,102.8125 C 86.062354,102.80208 86.062354,102.79167 86.0625,102.78125 C 86.447476,102.49055 86.822199,102.26415 87.15625,102 C 89.600769,100.06668 94.531861,95.13651 96.46875,92.6875 C 102.72518,84.776871 107.13927,74.983686 109.3125,64.1875 C 111.7466,52.095379 110.58528,40.083625 105.84375,28.46875 C 105.00066,26.403513 103.53035,23.438403 102.21875,21 C 101.55887,19.773222 100.98194,18.682122 100.5,17.90625 C 100.44697,17.82088 100.39683,17.765545 100.34375,17.6875 C 100.0662,17.764449 99.886844,17.771258 99.34375,18.03125 C 95.498439,19.872067 91.215315,20.88819 86.28125,21.09375 C 85.928177,21.10847 85.578086,21.117805 85.21875,21.125 C 84.792252,21.133923 84.44798,21.125 84.15625,21.125 C 81.17094,21.125 78.312662,20.8305 75.65625,20.28125 C 75.501259,20.249214 75.274394,20.218396 75,20.15625 C 70.859176,19.217584 67.201192,17.628308 64.5,15.1875 C 64.194298,14.911266 64.184613,14.9003 64,14.75 z" id="4" fill="none" stroke="url(#E)" stroke-linejoin="round" stroke-width="2.1"/>
 <path id="5" d="M 102.28125,936.15625 C 101.61029,936.22143 101.0317,936.65538 100.78125,937.28125 C 96.955402,946.56352 89.21847,962.32236 82.3125,977.71875 C 76.598288,990.4582 71.599911,1002.5887 69.625,1011.375 C 65.168944,1003.7001 57.743953,995.93714 49.65625,988.875 C 39.930274,980.38233 29.496663,973.02978 22.96875,968.71875 C 22.548478,968.4336 22.027452,968.33887 21.533705,968.45784 C 21.039958,968.57682 20.619264,968.89847 20.375,969.34375 L 4.3125,998.84375 C 4.0510638,999.32088 4.0189961,999.89054 4.2252318,1000.394 C 4.4314675,1000.8975 4.8539632,1001.2809 5.375,1001.4375 C 31.872449,1009.5303 56.142476,1025.7245 75.375,1043.375 C 75.811188,1043.7813 76.419976,1043.9458 77.001452,1043.8145 C 77.582927,1043.6833 78.061961,1043.2731 78.28125,1042.7188 C 89.56085,1014.8076 106.33898,973.11228 124.0625,947.9375 C 124.37317,947.49517 124.46906,946.93682 124.32377,946.41619 C 124.17847,945.89555 123.80732,945.46754 123.3125,945.25 L 103.15625,936.3125 C 102.88219,936.18823 102.58138,936.13452 102.28125,936.15625 L 102.28125,936.15625 z" transform="matrix(0.4957626,0,0,0.5317917,32.152015,-462.47655)" fill="#555"/>
</svg>
