<?xml version="1.0"?>
<svg xmlns:rdf="http://www.w3.org/1999/02/22-rdf-syntax-ns#" xmlns="http://www.w3.org/2000/svg" xmlns:cc="http://creativecommons.org/ns#" xmlns:xlink="http://www.w3.org/1999/xlink" xmlns:dc="http://purl.org/dc/elements/1.1/" xmlns:svg="http://www.w3.org/2000/svg" id="svg2" viewBox="0 0 32 32">
  <defs id="defs4">
    <linearGradient id="linearGradient10137" y2="28.275" gradientUnits="userSpaceOnUse" x2="20.07" y1="3.9757" x1="12.113">
      <stop id="stop1369" stop-color="#525bc6" offset="0"/>
      <stop id="stop1371" stop-color="#6f76db" offset="1"/>
    </linearGradient>
    <linearGradient id="linearGradient1379" y2="30" gradientUnits="userSpaceOnUse" x2="20.214" y1="2" x1="12.031">
      <stop id="stop8665" stop-color="#20286d" offset="0"/>
      <stop id="stop8667" stop-color="#0b102f" offset="1"/>
    </linearGradient>
  </defs>
  <g id="layer1">
    <path id="rect1370" d="m16 0c-1.662 0-3 1.2807-3 2.875v10.125h-10.125c-1.5943 0-2.875 1.338-2.875 3 1.0176e-16 1.662 1.2807 3 2.875 3h10.125v10.125c0 1.594 1.338 2.875 3 2.875s3-1.281 3-2.875v-10.125h10.125c1.594 0 2.875-1.338 2.875-3s-1.281-3-2.875-3h-10.125v-10.125c0-1.5943-1.338-2.875-3-2.875z" fill="url(#linearGradient1379)"/>
    <path id="path3563" d="m16 0.9375c-1.178 0-2.062 0.8704-2.062 1.9375v10.125c-0.003 0.517-0.421 0.935-0.938 0.938h-10.125c-1.0671 0-1.9375 0.884-1.9375 2.062s0.8704 2.062 1.9375 2.062h10.125c0.517 0.003 0.935 0.421 0.938 0.938v10.125c0 1.067 0.884 1.937 2.062 1.937s2.062-0.87 2.062-1.937v-10.125c0.003-0.517 0.421-0.935 0.938-0.938h10.125c1.067 0 1.937-0.884 1.937-2.062s-0.87-2.062-1.937-2.062h-10.125c-0.517-0.003-0.935-0.421-0.938-0.938v-10.125c0-1.0671-0.884-1.9375-2.062-1.9375z" fill="url(#linearGradient10137)" transform="translate(-.0625 .0625)"/>
  </g>
  <metadata>
    <rdf:RDF>
      <cc:Work>
        <dc:format>image/svg+xml</dc:format>
        <dc:type rdf:resource="http://purl.org/dc/dcmitype/StillImage"/>
        <cc:license rdf:resource="http://creativecommons.org/licenses/publicdomain/"/>
        <dc:publisher>
          <cc:Agent rdf:about="http://openclipart.org/">
            <dc:title>Openclipart</dc:title>
          </cc:Agent>
        </dc:publisher>
        <dc:title>add_blue</dc:title>
        <dc:date>2008-05-26T11:25:52</dc:date>
        <dc:description>add, add, clip art, clipart, icon, icon, image, media, plus, plus, png, public domain, svg, </dc:description>
        <dc:source>http://openclipart.org/detail/16951/add_blue-by-jean_victor_balin</dc:source>
        <dc:creator>
          <cc:Agent>
            <dc:title>jean_victor_balin</dc:title>
          </cc:Agent>
        </dc:creator>
        <dc:subject>
          <rdf:Bag>
            <rdf:li>add</rdf:li>
            <rdf:li>clip art</rdf:li>
            <rdf:li>clipart</rdf:li>
            <rdf:li>icon</rdf:li>
            <rdf:li>image</rdf:li>
            <rdf:li>media</rdf:li>
            <rdf:li>plus</rdf:li>
            <rdf:li>png</rdf:li>
            <rdf:li>public domain</rdf:li>
            <rdf:li>svg</rdf:li>
          </rdf:Bag>
        </dc:subject>
      </cc:Work>
      <cc:License rdf:about="http://creativecommons.org/licenses/publicdomain/">
        <cc:permits rdf:resource="http://creativecommons.org/ns#Reproduction"/>
        <cc:permits rdf:resource="http://creativecommons.org/ns#Distribution"/>
        <cc:permits rdf:resource="http://creativecommons.org/ns#DerivativeWorks"/>
      </cc:License>
    </rdf:RDF>
  </metadata>
</svg>
